<?xml version="1.0" encoding="UTF-8"?>
<svg width="65px" height="49px" viewBox="0 0 65 49" version="1.1" xmlns="http://www.w3.org/2000/svg" xmlns:xlink="http://www.w3.org/1999/xlink">
    <!-- Generator: Sketch 58 (84663) - https://sketch.com -->
    <title>Group</title>
    <desc>Created with Sketch.</desc>
    <g id="Page-1" stroke="none" stroke-width="1" fill="none" fill-rule="evenodd" stroke-linecap="round" stroke-linejoin="round">
        <g id="clima-icons" transform="translate(-473.000000, -911.000000)" stroke="#FFFFFF" stroke-width="4">
            <g id="OBJECTS" transform="translate(0.000000, 42.000000)">
                <g id="Group" transform="translate(174.000000, 468.000000)">
                    <g transform="translate(0.000000, 22.000000)" id="Path">
                        <g transform="translate(301.000000, 381.000000)">
                            <path d="M46.4,15.7 C44.9,15.7 43.5,15.9 42.2,16.3 C42,7.6 34.8,0.6 26.1,0.6 C17.2,0.6 10.1,7.7 10,16.6 C4.6,18.6 0.8,23.8 0.8,29.9 C0.8,37.8 7.2,44.1 15,44.1 C21.9,44.1 39.2,44.1 46.5,44.1 C54.4,44.1 60.7,37.7 60.7,29.9 C60.7,22 54.3,15.7 46.4,15.7 Z"></path>
                            <path d="M9.9,16.8 C9.9,7.9 17.1,0.7 26,0.7 C34.9,0.7 42.1,7.9 42.1,16.8 C42.1,17.9 42,19 41.8,20.1"></path>
                            <path d="M9.4,16.8 C11.1,16.1 13,15.7 14.9,15.7 C18.8,15.7 22.4,17.3 25,19.9"></path>
                        </g>
                    </g>
                </g>
            </g>
        </g>
    </g>
</svg>