<?xml version="1.0" encoding="UTF-8"?>
<svg width="234px" height="206px" viewBox="0 0 234 206" version="1.1" xmlns="http://www.w3.org/2000/svg" xmlns:xlink="http://www.w3.org/1999/xlink">
    <!-- Generator: Sketch 58 (84663) - https://sketch.com -->
    <title>Group</title>
    <desc>Created with Sketch.</desc>
    <g id="Page-1" stroke="none" stroke-width="1" fill="none" fill-rule="evenodd">
        <g id="clima-icons" transform="translate(4.000000, -429.000000)">
            <g id="OBJECTS" transform="translate(0.000000, 42.000000)">
                <g id="Group" transform="translate(0.000000, 79.000000)">
                    <g transform="translate(0.000000, 307.000000)" id="Path">
                        <g transform="translate(0.000000, 1.000000)">
                            <g transform="translate(0.000000, 71.000000)" stroke="#FFFFFF" stroke-linecap="round" stroke-linejoin="round" stroke-width="9">
                                <path d="M136.9,44.9 C132.5,44.9 128.3,45.6 124.3,46.8 C123.6,20.9 102.4,0.1 76.3,0.1 C49.9,0.1 28.6,21.3 28.3,47.6 C12.3,53.7 0.9,69.1 0.9,87.3 C0.9,110.7 19.9,129.7 43.3,129.7 C63.9,129.7 115.3,129.7 136.9,129.7 C160.3,129.7 179.3,110.7 179.3,87.3 C179.3,63.9 160.3,44.9 136.9,44.9 Z"></path>
                                <path d="M28.3,48.2 C28.3,21.7 49.8,0.2 76.3,0.2 C102.8,0.2 124.3,21.7 124.3,48.2 C124.3,51.6 124,54.8 123.3,58"></path>
                                <path d="M26.8,48.2 C31.9,46.1 37.5,44.9 43.3,44.9 C55,44.9 65.6,49.6 73.3,57.3"></path>
                            </g>
                            <g transform="translate(81.000000, 0.000000)" fill="#FFFFFF" fill-rule="nonzero">
                                <path d="M69,34.7 C44.8,34.7 25.2,54.3 25.2,78.5 C25.2,79.6 25.3,80.6 25.3,81.7 C34.9,89.4 41.5,100.8 42.9,113.7 C44.4,114.8 45.9,115.8 47.5,116.7 C50.2,116.2 53,115.9 55.8,115.9 C63.5,115.9 70.7,118 77,121.6 C97.3,117.8 112.700381,100 112.700381,78.6 C112.8,54.3 93.2,34.7 69,34.7 Z"></path>
                                <path d="M69,23.8 C71.3,23.8 73.1,18.5 73.1,11.9 C73.1,5.3 71.3,0 69,0 C66.7,0 64.9,5.3 64.9,11.9 C64.9,18.5 66.8,23.8 69,23.8 Z"></path>
                                <path d="M41.4,31.2 C43.4,30.1 42.3,24.5 39,18.8 C35.7,13.1 31.4,9.4 29.5,10.5 C27.5,11.6 28.6,17.2 31.9,22.9 C35.2,28.7 39.5,32.4 41.4,31.2 Z"></path>
                                <path d="M96.7,126.9 C94.7,128 95.8,133.6 99.1,139.3 C102.4,145 106.7,148.7 108.6,147.6 C110.6,146.5 109.5,140.9 106.2,135.2 C102.9,129.5 98.6,125.8 96.7,126.9 Z"></path>
                                <path d="M8.8,49.1 C14.5,52.4 20.1,53.5 21.2,51.5 C22.3,49.5 18.6,45.3 12.9,42 C7.2,38.7 1.6,37.6 0.5,39.6 C-0.6,41.5 3.1,45.8 8.8,49.1 Z"></path>
                                <path d="M129.3,109.1 C123.6,105.8 118,104.7 116.9,106.7 C115.8,108.7 119.5,112.9 125.2,116.2 C130.9,119.5 136.4,120.6 137.6,118.6 C138.7,116.7 135,112.4 129.3,109.1 Z"></path>
                                <path d="M136.2,75 C129.6,75 124.3,76.8 124.3,79.1 C124.3,81.4 129.6,83.2 136.2,83.2 C142.8,83.2 148.1,81.4 148.1,79.1 C148.1,76.8 142.8,75 136.2,75 Z"></path>
                                <path d="M129.3,49.1 C135,45.8 138.7,41.5 137.6,39.6 C136.5,37.6 130.9,38.7 125.2,42 C119.5,45.3 115.8,49.6 116.9,51.5 C118,53.4 123.6,52.4 129.3,49.1 Z"></path>
                                <path d="M96.7,31.2 C98.7,32.3 102.9,28.6 106.2,22.9 C109.5,17.2 110.6,11.7 108.6,10.5 C106.6,9.4 102.4,13.1 99.1,18.8 C95.8,24.6 94.7,30.1 96.7,31.2 Z"></path>
                            </g>
                        </g>
                    </g>
                </g>
            </g>
        </g>
    </g>
</svg>