<?xml version="1.0" encoding="UTF-8"?>
<svg width="58px" height="68px" viewBox="0 0 58 68" version="1.1" xmlns="http://www.w3.org/2000/svg" xmlns:xlink="http://www.w3.org/1999/xlink">
    <!-- Generator: Sketch 58 (84663) - https://sketch.com -->
    <title>Group</title>
    <desc>Created with Sketch.</desc>
    <g id="Page-1" stroke="none" stroke-width="1" fill="none" fill-rule="evenodd">
        <g id="clima-icons" transform="translate(-930.000000, -923.000000)">
            <g id="OBJECTS" transform="translate(0.000000, 42.000000)">
                <g id="Group" transform="translate(174.000000, 468.000000)">
                    <g transform="translate(0.000000, 22.000000)" id="Path">
                        <g transform="translate(758.000000, 393.000000)">
                            <g stroke="#FFFFFF" stroke-linecap="round" stroke-linejoin="round" stroke-width="4">
                                <path d="M41.3,14.2 C40,14.2 38.7,14.4 37.5,14.8 C37.3,7 30.9,0.7 23,0.7 C15.1,0.7 8.6,7.1 8.5,15 C3.7,16.8 0.2,21.5 0.2,27 C0.2,34.1 5.9,39.8 13,39.8 C19.2,39.8 34.7,39.8 41.2,39.8 C48.3,39.8 54,34.1 54,27 C54.1,20 48.4,14.2 41.3,14.2 Z"></path>
                                <path d="M8.5,15.2 C8.5,7.2 15,0.7 23,0.7 C31,0.7 37.5,7.2 37.5,15.2 C37.5,16.2 37.4,17.2 37.2,18.2"></path>
                                <path d="M8.1,15.2 C9.6,14.6 11.3,14.2 13.1,14.2 C16.6,14.2 19.8,15.6 22.1,17.9"></path>
                            </g>
                            <polygon fill="#FFFFFF" fill-rule="nonzero" points="24.2 39 32.2 39 27.4 47.8 38.2 47.8 21.6 66.1 26 54.4 14.9 54.4"></polygon>
                        </g>
                    </g>
                </g>
            </g>
        </g>
    </g>
</svg>