<?xml version="1.0" encoding="UTF-8"?>
<svg width="58px" height="67px" viewBox="0 0 58 67" version="1.1" xmlns="http://www.w3.org/2000/svg" xmlns:xlink="http://www.w3.org/1999/xlink">
    <!-- Generator: Sketch 58 (84663) - https://sketch.com -->
    <title>Group</title>
    <desc>Created with Sketch.</desc>
    <g id="Page-1" stroke="none" stroke-width="1" fill="none" fill-rule="evenodd">
        <g id="clima-icons" transform="translate(-779.000000, -901.000000)">
            <g id="OBJECTS" transform="translate(0.000000, 42.000000)">
                <g id="Group" transform="translate(174.000000, 468.000000)">
                    <g transform="translate(0.000000, 22.000000)" id="Path">
                        <g transform="translate(607.000000, 371.000000)">
                            <g stroke="#FFFFFF" stroke-linecap="round" stroke-linejoin="round" stroke-width="4">
                                <path d="M41.1,13.8 C39.8,13.8 38.5,14 37.3,14.4 C37.1,6.6 30.7,0.3 22.8,0.3 C14.9,0.3 8.4,6.7 8.3,14.6 C3.5,16.4 0,21.1 0,26.6 C0,33.7 5.7,39.4 12.8,39.4 C19,39.4 34.5,39.4 41,39.4 C48.1,39.4 53.8,33.7 53.8,26.6 C53.9,19.6 48.2,13.8 41.1,13.8 Z"></path>
                                <path d="M8.4,14.8 C8.4,6.8 14.9,0.3 22.9,0.3 C30.9,0.3 37.4,6.8 37.4,14.8 C37.4,15.8 37.3,16.8 37.1,17.8"></path>
                                <path d="M7.9,14.8 C9.4,14.2 11.1,13.8 12.9,13.8 C16.4,13.8 19.6,15.2 21.9,17.5"></path>
                            </g>
                            <g transform="translate(12.000000, 44.000000)" fill="#FFFFFF" fill-rule="nonzero">
                                <path d="M4.1,4.9 C3.4,7.1 2,8.7 1.1,8.4 C0.2,8.1 0,6.1 0.8,3.8 C1.5,1.6 2.9,5.55111512e-17 3.8,0.3 C4.6,0.6 4.8,2.6 4.1,4.9 Z"></path>
                                <path d="M17.1,5.5 C16.4,7.7 15,9.3 14.1,9 C13.2,8.7 13,6.7 13.8,4.4 C14.5,2.2 15.9,0.6 16.8,0.9 C17.7,1.2 17.8,3.2 17.1,5.5 Z"></path>
                                <path d="M30.1,6.1 C29.4,8.3 28,9.9 27.1,9.6 C26.2,9.3 26,7.3 26.8,5 C27.5,2.8 28.9,1.2 29.8,1.5 C30.7,1.8 30.8,3.8 30.1,6.1 Z"></path>
                            </g>
                            <g transform="translate(17.000000, 55.000000)" fill="#FFFFFF" fill-rule="nonzero">
                                <path d="M4.1,5.3 C3.4,7.5 2,9.1 1.1,8.8 C0.2,8.5 0,6.5 0.8,4.2 C1.5,2 2.9,0.4 3.8,0.7 C4.7,1 4.8,3.1 4.1,5.3 Z"></path>
                                <path d="M17.1,5.9 C16.4,8.1 15,9.7 14.1,9.4 C13.2,9.1 13,7.1 13.8,4.8 C14.5,2.6 15.9,1 16.8,1.3 C17.7,1.6 17.8,3.7 17.1,5.9 Z"></path>
                            </g>
                        </g>
                    </g>
                </g>
            </g>
        </g>
    </g>
</svg>