<?xml version="1.0" encoding="UTF-8"?>
<svg width="68px" height="67px" viewBox="0 0 68 67" version="1.1" xmlns="http://www.w3.org/2000/svg" xmlns:xlink="http://www.w3.org/1999/xlink">
    <!-- Generator: Sketch 58 (84663) - https://sketch.com -->
    <title>Group</title>
    <desc>Created with Sketch.</desc>
    <g id="Page-1" stroke="none" stroke-width="1" fill="none" fill-rule="evenodd">
        <g id="clima-icons" transform="translate(-174.000000, -830.000000)" fill="#FFFFFF" fill-rule="nonzero">
            <g id="OBJECTS" transform="translate(0.000000, 42.000000)">
                <g id="Group" transform="translate(174.000000, 468.000000)">
                    <g transform="translate(0.000000, 22.000000)" id="Path">
                        <g transform="translate(0.000000, 298.000000)">
                            <path d="M52.3,33.2 C52.3,43.4 44.1,51.6 33.9,51.6 C23.7,51.6 15.5,43.4 15.5,33.2 C15.5,23 23.7,14.8 33.9,14.8 C44.1,14.8 52.3,23 52.3,33.2 Z"></path>
                            <g>
                                <g transform="translate(32.000000, 0.000000)">
                                    <path d="M3.7,5.2 C3.7,8 2.9,10.2 2,10.2 C1,10.2 0.3,8 0.3,5.2 C0.3,2.4 1.1,0.2 2,0.2 C2.9,0.1 3.7,2.4 3.7,5.2 Z"></path>
                                    <path d="M3.7,61.6 C3.7,64.4 2.9,66.6 2,66.6 C1,66.6 0.3,64.4 0.3,61.6 C0.3,58.8 1.1,56.6 2,56.6 C2.9,56.6 3.7,58.9 3.7,61.6 Z"></path>
                                </g>
                                <g transform="translate(16.000000, 4.000000)">
                                    <path d="M5.3,4.1 C6.7,6.5 7.1,8.8 6.3,9.3 C5.5,9.8 3.7,8.2 2.3,5.8 C0.9,3.4 0.5,1.1 1.3,0.6 C2.1,0.1 3.9,1.7 5.3,4.1 Z"></path>
                                    <path d="M33.6,53 C35,55.4 35.4,57.7 34.6,58.2 C33.8,58.7 32,57.1 30.6,54.7 C29.2,52.3 28.8,50 29.6,49.5 C30.4,49 32.2,50.6 33.6,53 Z"></path>
                                </g>
                                <g transform="translate(5.000000, 16.000000)">
                                    <path d="M5.3,1.8 C7.7,3.2 9.3,5 8.8,5.8 C8.3,6.6 6,6.2 3.6,4.8 C1.2,3.4 -0.4,1.6 0.1,0.8 C0.6,-0.1 3,0.4 5.3,1.8 Z"></path>
                                    <path d="M54.3,30 C56.7,31.4 58.3,33.2 57.8,34 C57.3,34.8 55,34.4 52.6,33 C50.2,31.6 48.6,29.8 49.1,29 C49.5,28.2 51.9,28.6 54.3,30 Z"></path>
                                </g>
                                <g transform="translate(0.000000, 31.000000)">
                                    <path d="M5.7,0.7 C8.5,0.7 10.7,1.5 10.7,2.4 C10.7,3.4 8.5,4.1 5.7,4.1 C2.9,4.1 0.7,3.3 0.7,2.4 C0.7,1.4 2.9,0.7 5.7,0.7 Z"></path>
                                    <path d="M62.2,0.7 C65,0.7 67.2,1.5 67.2,2.4 C67.2,3.4 65,4.1 62.2,4.1 C59.4,4.1 57.2,3.3 57.2,2.4 C57.2,1.4 59.4,0.7 62.2,0.7 Z"></path>
                                </g>
                                <g transform="translate(5.000000, 16.000000)">
                                    <path d="M3.6,30 C6,28.6 8.3,28.2 8.8,29 C9.3,29.8 7.7,31.6 5.3,33 C2.9,34.4 0.6,34.8 0.1,34 C-0.3,33.2 1.2,31.4 3.6,30 Z"></path>
                                    <path d="M52.5,1.8 C54.9,0.4 57.2,0 57.7,0.8 C58.2,1.6 56.6,3.4 54.2,4.8 C51.8,6.2 49.5,6.6 49,5.8 C48.6,5 50.1,3.2 52.5,1.8 Z"></path>
                                </g>
                                <g transform="translate(16.000000, 4.000000)">
                                    <path d="M2.3,53 C3.7,50.6 5.5,49 6.3,49.5 C7.1,50 6.7,52.3 5.3,54.7 C3.9,57.1 2.1,58.7 1.3,58.2 C0.5,57.7 0.9,55.4 2.3,53 Z"></path>
                                    <path d="M30.6,4.1 C32,1.7 33.8,0.1 34.6,0.6 C35.4,1.1 35,3.4 33.6,5.8 C32.2,8.2 30.4,9.8 29.6,9.3 C28.7,8.8 29.2,6.5 30.6,4.1 Z"></path>
                                </g>
                            </g>
                        </g>
                    </g>
                </g>
            </g>
        </g>
    </g>
</svg>