<?xml version="1.0" encoding="UTF-8"?>
<svg width="60px" height="57px" viewBox="0 0 60 57" version="1.1" xmlns="http://www.w3.org/2000/svg" xmlns:xlink="http://www.w3.org/1999/xlink">
    <!-- Generator: Sketch 58 (84663) - https://sketch.com -->
    <title>Group</title>
    <desc>Created with Sketch.</desc>
    <g id="Page-1" stroke="none" stroke-width="1" fill="none" fill-rule="evenodd" stroke-linecap="round" stroke-linejoin="round">
        <g id="clima-icons" transform="translate(-1368.000000, -809.000000)" stroke="#FFFFFF" stroke-width="4">
            <g id="OBJECTS" transform="translate(0.000000, 42.000000)">
                <g id="Group" transform="translate(174.000000, 468.000000)">
                    <g transform="translate(0.000000, 22.000000)" id="Path">
                        <g transform="translate(1196.000000, 279.000000)">
                            <path d="M0.2,16.1 C10.5,14.9 24.2,26.5 33,24.1 C40,22.2 44.1,15.1 42.3,8.1 C40.8,2.5 35.1,-0.8 29.5,0.7 C25,1.9 22.4,6.5 23.6,11 C24.6,14.6 28.2,16.7 31.8,15.7 C34.7,14.9 36.4,12 35.6,9.1"></path>
                            <path d="M10.2,27.2 C28.4,37.6 36.1,30 42.2,33.9 C47.1,37 48.6,43.5 45.5,48.5 C43,52.5 37.8,53.6 33.8,51.1 C30.6,49.1 29.7,44.9 31.7,41.8 C33.3,39.3 36.6,38.5 39.2,40.1"></path>
                            <path d="M44.9,24.2 C44.9,24.2 49.4,21.3 53.7,25.7 C57.6,29.8 53.5,35.1 53.5,35.1"></path>
                        </g>
                    </g>
                </g>
            </g>
        </g>
    </g>
</svg>